<?xml version="1.0" standalone="no"?>
<!DOCTYPE svg PUBLIC "-//W3C//DTD SVG 20010904//EN"
 "http://www.w3.org/TR/2001/REC-SVG-20010904/DTD/svg10.dtd">
<svg version="1.0" xmlns="http://www.w3.org/2000/svg"
 width="32.000000pt" height="32.000000pt" viewBox="0 0 32.000000 32.000000"
 preserveAspectRatio="xMidYMid meet">

<g transform="translate(0.000000,32.000000) scale(0.100000,-0.100000)"
fill="#000000" stroke="none">
<path d="M95 306 c-101 -44 -125 -178 -46 -257 65 -65 157 -65 222 0 124 124
-15 327 -176 257z m46 -65 c-12 -8 -11 -14 6 -42 l21 -32 15 30 c12 23 13 33
4 42 -8 8 -4 11 16 11 15 0 27 -2 27 -5 0 -2 -13 -27 -30 -55 -32 -55 -36 -71
-20 -101 9 -16 7 -19 -14 -19 -23 0 -24 3 -19 35 4 26 -1 46 -26 90 l-31 55
32 0 c23 0 29 -3 19 -9z"/>
</g>
</svg>
